<mxfile host="app.diagrams.net" modified="2020-07-29T18:34:22.124Z" agent="5.0 (Macintosh; Intel Mac OS X 10_15_5) AppleWebKit/537.36 (KHTML, like Gecko) Chrome/84.0.4147.89 Safari/537.36" etag="tONys-6HvVusIZocxanu" version="13.5.5" type="github">
  <diagram id="HCLhx6ZJSY-hyqsEELaz" name="Page-1">
    <mxGraphModel dx="746" dy="971" grid="1" gridSize="10" guides="1" tooltips="1" connect="1" arrows="1" fold="1" page="1" pageScale="1" pageWidth="827" pageHeight="1169" math="0" shadow="0">
      <root>
        <mxCell id="0" />
        <mxCell id="1" parent="0" />
        <mxCell id="uhbmfKRPzUjuZhvFIW3h-1" value="CPU" style="rounded=0;whiteSpace=wrap;html=1;fillColor=#dae8fc;strokeColor=#6c8ebf;" vertex="1" parent="1">
          <mxGeometry x="380" y="490" width="50" height="50" as="geometry" />
        </mxCell>
        <mxCell id="uhbmfKRPzUjuZhvFIW3h-2" value="CPU" style="rounded=0;whiteSpace=wrap;html=1;fillColor=#dae8fc;strokeColor=#6c8ebf;" vertex="1" parent="1">
          <mxGeometry x="450" y="490" width="50" height="50" as="geometry" />
        </mxCell>
        <mxCell id="uhbmfKRPzUjuZhvFIW3h-3" value="CPU" style="rounded=0;whiteSpace=wrap;html=1;fillColor=#dae8fc;strokeColor=#6c8ebf;" vertex="1" parent="1">
          <mxGeometry x="584" y="490" width="50" height="50" as="geometry" />
        </mxCell>
        <mxCell id="uhbmfKRPzUjuZhvFIW3h-4" value="CPU" style="rounded=0;whiteSpace=wrap;html=1;fillColor=#dae8fc;strokeColor=#6c8ebf;" vertex="1" parent="1">
          <mxGeometry x="515" y="490" width="50" height="50" as="geometry" />
        </mxCell>
        <mxCell id="uhbmfKRPzUjuZhvFIW3h-5" value="" style="rounded=0;whiteSpace=wrap;html=1;fillColor=#bac8d3;strokeColor=#23445d;" vertex="1" parent="1">
          <mxGeometry x="380" y="250" width="50" height="200" as="geometry" />
        </mxCell>
        <mxCell id="uhbmfKRPzUjuZhvFIW3h-6" value="" style="rounded=0;whiteSpace=wrap;html=1;fillColor=#ffff88;strokeColor=#36393d;" vertex="1" parent="1">
          <mxGeometry x="390" y="410" width="30" height="30" as="geometry" />
        </mxCell>
        <mxCell id="uhbmfKRPzUjuZhvFIW3h-7" value="" style="rounded=0;whiteSpace=wrap;html=1;fillColor=#ffff88;strokeColor=#36393d;" vertex="1" parent="1">
          <mxGeometry x="390" y="370" width="30" height="30" as="geometry" />
        </mxCell>
        <mxCell id="uhbmfKRPzUjuZhvFIW3h-8" value="" style="rounded=0;whiteSpace=wrap;html=1;fillColor=#ffff88;strokeColor=#36393d;" vertex="1" parent="1">
          <mxGeometry x="390" y="330" width="30" height="30" as="geometry" />
        </mxCell>
        <mxCell id="uhbmfKRPzUjuZhvFIW3h-9" value="" style="rounded=0;whiteSpace=wrap;html=1;fillColor=#ffff88;strokeColor=#36393d;" vertex="1" parent="1">
          <mxGeometry x="390" y="290" width="30" height="30" as="geometry" />
        </mxCell>
        <mxCell id="uhbmfKRPzUjuZhvFIW3h-10" value="" style="rounded=0;whiteSpace=wrap;html=1;fillColor=#bac8d3;strokeColor=#23445d;" vertex="1" parent="1">
          <mxGeometry x="450" y="250" width="50" height="200" as="geometry" />
        </mxCell>
        <mxCell id="uhbmfKRPzUjuZhvFIW3h-11" value="" style="rounded=0;whiteSpace=wrap;html=1;fillColor=#ffff88;strokeColor=#36393d;" vertex="1" parent="1">
          <mxGeometry x="460" y="410" width="30" height="30" as="geometry" />
        </mxCell>
        <mxCell id="uhbmfKRPzUjuZhvFIW3h-12" value="" style="rounded=0;whiteSpace=wrap;html=1;fillColor=#ffff88;strokeColor=#36393d;" vertex="1" parent="1">
          <mxGeometry x="460" y="370" width="30" height="30" as="geometry" />
        </mxCell>
        <mxCell id="uhbmfKRPzUjuZhvFIW3h-15" value="" style="rounded=0;whiteSpace=wrap;html=1;fillColor=#bac8d3;strokeColor=#23445d;" vertex="1" parent="1">
          <mxGeometry x="515" y="250" width="50" height="200" as="geometry" />
        </mxCell>
        <mxCell id="uhbmfKRPzUjuZhvFIW3h-16" value="" style="rounded=0;whiteSpace=wrap;html=1;fillColor=#ffff88;strokeColor=#36393d;" vertex="1" parent="1">
          <mxGeometry x="525" y="410" width="30" height="30" as="geometry" />
        </mxCell>
        <mxCell id="uhbmfKRPzUjuZhvFIW3h-17" value="" style="rounded=0;whiteSpace=wrap;html=1;fillColor=#ffff88;strokeColor=#36393d;" vertex="1" parent="1">
          <mxGeometry x="525" y="370" width="30" height="30" as="geometry" />
        </mxCell>
        <mxCell id="uhbmfKRPzUjuZhvFIW3h-18" value="" style="rounded=0;whiteSpace=wrap;html=1;fillColor=#ffff88;strokeColor=#36393d;" vertex="1" parent="1">
          <mxGeometry x="525" y="330" width="30" height="30" as="geometry" />
        </mxCell>
        <mxCell id="uhbmfKRPzUjuZhvFIW3h-19" value="" style="rounded=0;whiteSpace=wrap;html=1;fillColor=#ffff88;strokeColor=#36393d;" vertex="1" parent="1">
          <mxGeometry x="525" y="290" width="30" height="30" as="geometry" />
        </mxCell>
        <mxCell id="uhbmfKRPzUjuZhvFIW3h-20" value="" style="rounded=0;whiteSpace=wrap;html=1;fillColor=#bac8d3;strokeColor=#23445d;" vertex="1" parent="1">
          <mxGeometry x="584" y="250" width="50" height="200" as="geometry" />
        </mxCell>
        <mxCell id="uhbmfKRPzUjuZhvFIW3h-21" value="" style="rounded=0;whiteSpace=wrap;html=1;fillColor=#ffff88;strokeColor=#36393d;" vertex="1" parent="1">
          <mxGeometry x="594" y="410" width="30" height="30" as="geometry" />
        </mxCell>
      </root>
    </mxGraphModel>
  </diagram>
</mxfile>
